<?xml version="1.0" encoding="utf-8"?>
<!-- Generator: Adobe Illustrator 28.1.0, SVG Export Plug-In . SVG Version: 6.00 Build 0)  -->
<svg version="1.1" id="Layer_1" xmlns="http://www.w3.org/2000/svg" xmlns:xlink="http://www.w3.org/1999/xlink" x="0px" y="0px"
	 viewBox="0 0 105.1 105.1" style="enable-background:new 0 0 105.1 105.1;" xml:space="preserve">
<style type="text/css">
	.st0{fill:#794D9F;}
	.st1{fill:#080909;}
	.st2{fill:#FFFFFF;}
</style>
<g>
	<path class="st0" d="M82.5,105.1H22.7C10.1,105.1,0,95,0,82.5V22.7C0,10.1,10.2,0,22.7,0h59.8c12.5,0,22.7,10.2,22.7,22.7v59.8
		C105.1,95,95,105.1,82.5,105.1z"/>
	<g>
		<path class="st1" d="M52.2,64.6c0.2-2.6,0.3-5.2,0.5-8.3c4.6,7.2,9.7,9.5,15.6,7.3c5-1.8,7.9-6.2,7.8-11.7
			c-0.2-5.7-3.6-9.4-10.4-11.3C73.1,39,76.9,34,76,27.2c-0.7-5.9-5.8-10-12.7-10c-7.5,0-15.1,0-22.7,0.1c-5.5,0.1-10.1,3.9-11.2,9.1
			c-1.2,5.4,1.5,10.7,6.7,13.2c1,0.5,2.2,0.3,2.9,1.5c-3.3,0.6-6,2.2-7.8,5.1c-4.7,7.2-1.2,15,8.2,18.3c-1,0.3-2.2,0.6-3.2,1
			c-5.4,2.4-8.2,8.1-6.7,13.8c1.5,5.6,7.1,9.3,13,8.7c5.5-0.6,9.8-5.2,10-11.1C52.5,72.7,52.8,68.6,52.2,64.6z"/>
		<path class="st2" d="M38.9,41c-0.6-1.1-1.9-1-2.9-1.5c-5.1-2.5-7.8-7.8-6.7-13.2c1.1-5.2,5.8-9,11.2-9.1
			c7.5-0.1,15.1-0.1,22.7-0.1c6.9,0,12,4,12.7,10c0.8,6.8-3,11.8-10.3,13.5c-1.3,0.1-2.7,0.2-4,0.2c-3-0.4-6.1-0.5-9.1,0.2
			C48.1,41.1,43.5,41,38.9,41z"/>
		<path class="st2" d="M38.9,41c4.5,0,9.1,0,13.7,0c-0.1,2.4-0.4,4.9,0.5,7.3c1.8-4,4.8-6.1,8.6-7.5c1.3-0.1,2.7-0.2,4-0.2
			c6.8,1.9,10.2,5.6,10.4,11.3c0.2,5.5-2.8,9.9-7.8,11.7c-5.9,2.1-11-0.2-15.6-7.3c-0.2,3.1-0.3,5.7-0.5,8.3
			c-4.3-0.1-8.6-0.1-13-0.2c-9.3-3.3-12.8-11.1-8.2-18.3C33,43.2,35.6,41.6,38.9,41z"/>
		<path class="st2" d="M39.3,64.4c4.3,0.1,8.6,0.1,13,0.2c0.6,4.1,0.3,8.2,0.2,12.2c-0.2,5.8-4.5,10.5-10,11.1
			c-6,0.7-11.5-3.1-13-8.7c-1.5-5.6,1.3-11.4,6.7-13.8C37.1,65,38.2,64.7,39.3,64.4z"/>
		<path class="st0" d="M61.7,40.9c-3.8,1.4-6.9,3.5-8.6,7.5c-0.8-2.5-0.5-4.9-0.5-7.3C55.6,40.4,58.6,40.5,61.7,40.9z"/>
	</g>
</g>
</svg>
