<?xml version="1.0" encoding="utf-8"?>
<!-- Generator: Adobe Illustrator 28.1.0, SVG Export Plug-In . SVG Version: 6.00 Build 0)  -->
<svg version="1.1" id="Layer_1" xmlns="http://www.w3.org/2000/svg" xmlns:xlink="http://www.w3.org/1999/xlink" x="0px" y="0px"
	 viewBox="0 0 104.9 110" style="enable-background:new 0 0 104.9 110;" xml:space="preserve">
<style type="text/css">
	.st0{fill:#FFFFFF;}
	.st1{fill:#794D9F;}
</style>
<g>
	<path class="st0" d="M0,54.5c0,11.8-0.1,23.6,0,35.4c0.1,11.6,6.8,19.4,18.3,19.7c22.4,0.5,44.8,0.5,67.2,0
		c11.8-0.2,19-8.2,19.2-20c0.2-23.3,0.2-46.7,0-70C104.6,7.8,97.1,0.3,85.3,0.2C63.2,0,41.1,0,19,0.2C7.5,0.3,0.3,7.6,0.1,19.1
		C-0.1,30.9,0.1,42.7,0,54.5z"/>
	<path class="st1" d="M0.1,54.5c0-11.8-0.1-23.6,0.1-35.4C0.3,7.6,7.5,0.3,19,0.2c22.1-0.2,44.3-0.2,66.4,0
		c11.8,0.1,19.3,7.6,19.4,19.5c0.2,23.3,0.2,46.7,0,70c-0.1,11.8-7.4,19.8-19.2,20c-22.4,0.4-44.8,0.5-67.2,0
		c-11.4-0.2-18.1-8-18.3-19.7C-0.1,78.1,0,66.3,0.1,54.5z M67.6,81.2C62.1,65,56.9,49,51.2,33.3c-0.7-2-4.1-3.8-6.4-4.1
		c-1.9-0.2-5.4,1.5-6,3.2C32.9,48.6,27.5,64.9,22,81.2c7.6,2.7,11.4,0.3,12.6-6.8c0.9-5.6,3.8-8.1,10.2-8.1c6.5,0,9.2,2.6,10.1,8.2
		C56,81.6,60,83.8,67.6,81.2z M79.8,81.7c0-13.3,0-25.7,0-38.2c-3.2,0-5.7,0-8.6,0c0,12.9,0,25.3,0,38.2
		C74.2,81.7,76.7,81.7,79.8,81.7z M83.3,35.2c-3.2-2.7-5.5-6-7.2-5.7c-2.3,0.4-4.2,3.6-6.2,5.5c1.9,1.8,3.7,4.9,5.7,5.1
		C77.7,40.3,79.9,37.5,83.3,35.2z"/>
	<path class="st0" d="M67.6,81.2C60,83.8,56,81.6,54.8,74.5c-1-5.6-3.6-8.2-10.1-8.2c-6.4,0-9.2,2.5-10.2,8.1
		c-1.2,7.1-4.9,9.5-12.6,6.8c5.5-16.3,10.9-32.6,16.8-48.8c0.6-1.7,4.1-3.4,6-3.2c2.3,0.3,5.7,2.1,6.4,4.1
		C56.9,49,62.1,65,67.6,81.2z M49.2,57.6c-1.5-4.7-2.7-8.3-4.6-14.2c-2,6.3-3.1,9.9-4.5,14.2C43.3,57.6,45.5,57.6,49.2,57.6z"/>
	<path class="st0" d="M79.8,81.7c-3,0-5.6,0-8.6,0c0-12.8,0-25.2,0-38.2c3,0,5.4,0,8.6,0C79.8,56,79.8,68.4,79.8,81.7z"/>
	<path class="st0" d="M83.3,35.2c-3.4,2.3-5.6,5.1-7.7,4.9c-2-0.2-3.8-3.3-5.7-5.1c2-2,3.9-5.1,6.2-5.5
		C77.8,29.2,80.1,32.5,83.3,35.2z"/>
	<path class="st1" d="M49.2,57.6c-3.7,0-5.9,0-9.2,0c1.4-4.3,2.5-8,4.5-14.2C46.5,49.3,47.6,52.9,49.2,57.6z"/>
</g>
</svg>
