<?xml version="1.0" encoding="utf-8"?>
<!-- Generator: Adobe Illustrator 28.1.0, SVG Export Plug-In . SVG Version: 6.00 Build 0)  -->
<svg version="1.1" id="Layer_1" xmlns="http://www.w3.org/2000/svg" xmlns:xlink="http://www.w3.org/1999/xlink" x="0px" y="0px"
	 viewBox="0 0 105.4 108.9" style="enable-background:new 0 0 105.4 108.9;" xml:space="preserve">
<style type="text/css">
	.st0{fill:#FFFFFF;}
	.st1{fill:#794D9F;}
</style>
<g>
	<g>
		<path class="st0" d="M0.1,53.6c0,11.7-0.3,23.4,0.1,35c0.4,12.4,7.5,19.7,20,19.9c21.5,0.4,43.1,0.4,64.6,0
			c12.7-0.2,20.3-7.9,20.4-20.5c0.2-22.5,0.2-45,0-67.4C105,7.2,97.8,0.2,84.2,0.1C63.3,0,42.3,0,21.4,0.1c-14,0.1-21,7.1-21.3,21.1
			C-0.1,32,0.1,42.8,0.1,53.6z"/>
		<path class="st1" d="M0.1,53.6c0-10.8-0.2-21.6,0-32.4c0.3-14,7.2-21,21.3-21.1C42.3,0,63.3,0,84.2,0.1c13.6,0.1,20.8,7.1,21,20.6
			c0.3,22.5,0.3,45,0,67.4c-0.1,12.6-7.7,20.3-20.4,20.5c-21.5,0.3-43.1,0.3-64.6,0c-12.5-0.2-19.6-7.5-20-19.9
			C-0.2,77,0.1,65.3,0.1,53.6z M13.9,77c7.8,3.3,11,0,12.1-6.7c1-5.8,4.5-6.8,10-6.9c5.6-0.1,8,2.1,8.9,7c1.4,7.1,5.1,9.7,12.5,6.4
			c-5.1-14.9-10-29.5-15.4-44c-0.8-2.1-3.7-4.5-5.9-4.7c-2.2-0.2-6,1.7-6.7,3.5C24.1,46.7,19.1,61.9,13.9,77z M60.7,77.5
			c3.2,0,6,0,9.4,0c0-6.6,0-12.7,0-18.8c0-4.8,1.2-9.7,6.8-8.8c2.4,0.4,5.4,5.2,5.9,8.4c0.9,6.2,0.3,12.6,0.3,19.7
			c3.8-0.2,6.5-0.3,9.8-0.4c0-8.3,0.4-15.8-0.1-23.3c-0.4-6.5-3.5-12.3-10.6-13.2C75,40.3,67.6,41,60.7,41
			C60.7,54,60.7,65.6,60.7,77.5z"/>
		<path class="st0" d="M13.9,77c5.1-15.1,10.1-30.3,15.7-45.3c0.7-1.8,4.5-3.7,6.7-3.5c2.1,0.2,5.1,2.6,5.9,4.7
			c5.3,14.5,10.2,29.1,15.4,44c-7.4,3.3-11.1,0.7-12.5-6.4c-0.9-4.9-3.3-7.1-8.9-7c-5.5,0.1-9,1.1-10,6.9C25,76.9,21.7,80.3,13.9,77
			z"/>
		<path class="st0" d="M60.7,77.5c0-12,0-23.5,0-36.6c6.9,0,14.3-0.7,21.5,0.2c7.2,0.9,10.2,6.7,10.6,13.2c0.5,7.5,0.1,15,0.1,23.3
			c-3.3,0.1-6,0.3-9.8,0.4c0-7.1,0.7-13.5-0.3-19.7c-0.5-3.2-3.5-8.1-5.9-8.4c-5.6-0.8-6.9,4-6.8,8.8c0,6.1,0,12.1,0,18.8
			C66.7,77.5,64,77.5,60.7,77.5z"/>
	</g>
	<path class="st1" d="M40.3,55c-3.7,0-5.9,0-9.2,0c1.4-4.3,2.5-8,4.5-14.2C37.6,46.6,38.8,50.2,40.3,55z"/>
</g>
</svg>
