<?xml version="1.0" encoding="utf-8"?>
<!-- Generator: Adobe Illustrator 28.1.0, SVG Export Plug-In . SVG Version: 6.00 Build 0)  -->
<svg version="1.1" id="Layer_1" xmlns="http://www.w3.org/2000/svg" xmlns:xlink="http://www.w3.org/1999/xlink" x="0px" y="0px"
	 viewBox="0 0 105.1 105.1" style="enable-background:new 0 0 105.1 105.1;" xml:space="preserve">
<style type="text/css">
	.st0{fill:#794D9F;}
	.st1{fill:#FFFFFF;}
</style>
<g>
	<path class="st0" d="M82.5,105.1H22.7C10.1,105.1,0,95,0,82.5V22.7C0,10.1,10.2,0,22.7,0h59.8c12.5,0,22.7,10.2,22.7,22.7v59.8
		C105.1,95,95,105.1,82.5,105.1z"/>
	<g>
		<path class="st0" d="M55.2,33.2c-0.2,0.2-0.3,0.5-0.5,0.7c2.9,2.7,3.1,6.1,3,9.6c-0.1,5.8,0,11.7,0,17.5c0,4.8-0.5,5.6-5,7.4
			c-4,1.6-7-0.3-7-4.5c0-8.3,0-16.6,0-24.9c0-1.2,0-2.3,0-3.3c-6-1.1-5.7-5.7,0.6-13.7c-11.9,0.5-24.8,15.5-24.6,28.8
			c1.3-2.3,2.6-4.6,4-6.8c1.2-1.8,2.9-2.7,5.1-2c2.3,0.7,2.6,2.7,2.6,4.8c0,6.3,0,12.6,0,19c0,1.5,0.2,3.4-0.6,4.5
			c-0.7,1-2.6,1.2-4.2,1.8c5.9,7,13.4,10.9,22.5,11.5c1,0.1,2.2-0.8,3-1.5c2.4-2.2,4.6-4.5,6.9-6.9c2,2.1,3.6,3.8,5.2,5.5
			c8.6-4.3,14.3-10.8,17.2-20.7c-1.6,1.5-2.6,2.5-3.7,3.4c-1.5,1.1-3,2.3-4.7,3.1c-3,1.3-4.8,0.1-4.8-3.1c0-5.7,0.3-11.5-0.1-17.2
			c-0.7-8.3,1.8-15.1,7.8-20.8c0.1-0.1,0-0.3,0-0.8c-7.1,1.3-12.8,5-17.5,10C58.6,34,56.9,33.6,55.2,33.2z"/>
		<path class="st1" d="M55.2,33.2c1.7,0.4,3.4,0.8,5.2,1.2c4.7-5,10.3-8.8,17.5-10c0,0.4,0.1,0.7,0,0.8c-5.9,5.7-8.4,12.5-7.8,20.8
			c0.5,5.7,0.1,11.5,0.1,17.2c0,3.2,1.8,4.4,4.8,3.1c1.7-0.8,3.2-2,4.7-3.1c1.1-0.9,2.1-1.9,3.7-3.4c-2.9,9.8-8.6,16.3-17.2,20.7
			C64.6,78.7,63,77,61,75c-2.4,2.4-4.6,4.7-6.9,6.9c-0.8,0.7-2,1.6-3,1.5c-9.1-0.6-16.6-4.5-22.5-11.5c1.6-0.6,3.5-0.8,4.2-1.8
			c0.8-1.1,0.6-3,0.6-4.5c0-6.3,0-12.6,0-19c0-2.1-0.3-4-2.6-4.8c-2.2-0.7-3.9,0.2-5.1,2c-1.5,2.2-2.7,4.5-4,6.8
			c-0.2-13.2,12.7-28.3,24.6-28.8c-6.3,8.1-6.6,12.6-0.6,13.7c0,1.1,0,2.2,0,3.3c0,8.3,0,16.6,0,24.9c0,4.2,3,6.2,7,4.5
			c4.5-1.9,5-2.6,5-7.4c0-5.8-0.1-11.7,0-17.5c0.1-3.5-0.2-6.9-3-9.6C54.9,33.6,55,33.4,55.2,33.2z"/>
	</g>
</g>
</svg>
