<?xml version="1.0" encoding="utf-8"?>
<!-- Generator: Adobe Illustrator 28.1.0, SVG Export Plug-In . SVG Version: 6.00 Build 0)  -->
<svg version="1.1" id="Layer_1" xmlns="http://www.w3.org/2000/svg" xmlns:xlink="http://www.w3.org/1999/xlink" x="0px" y="0px"
	 viewBox="0 0 105.2 109.9" style="enable-background:new 0 0 105.2 109.9;" xml:space="preserve">
<style type="text/css">
	.st0{fill:#FFFFFF;}
	.st1{fill:#794D9F;}
</style>
<g>
	<path class="st0" d="M105.1,55c0-11.8,0.1-23.6,0-35.4c-0.2-12-7.3-19.3-19.4-19.4C63.8-0.1,41.9,0,20,0.1
		C7.6,0.2,0.2,7.7,0.1,20.1c-0.1,23-0.1,46,0,69.1c0.1,12.4,7.2,20.3,19.5,20.5c21.9,0.4,43.8,0.4,65.7,0
		c12.6-0.2,19.6-7.7,19.8-20.2C105.2,78,105.1,66.5,105.1,55z"/>
	<path class="st1" d="M105.1,55c0,11.5,0.1,23,0,34.5c-0.2,12.4-7.2,20-19.8,20.2c-21.9,0.3-43.8,0.4-65.7,0
		c-12.4-0.2-19.5-8-19.5-20.5c-0.1-23-0.1-46,0-69.1C0.2,7.7,7.6,0.2,20,0.1C41.9,0,63.8,0,85.7,0.2c12,0.1,19.2,7.4,19.4,19.4
		C105.2,31.3,105.1,43.2,105.1,55z M35,81.2c0.4-6.4,0.7-12.3,1-18.3c0.7,0.7,1.5,1.4,2.2,2.1c6-3.6,13.1-6.1,17.6-11
		c5.2-5.6,2.8-15-3-19.7c-4.7-3.8-23.1-5.6-26.2-2.4c-0.9,0.9-1.3,2.6-1.3,4c-0.1,14.9-0.1,29.8-0.1,45.3
		C29.1,81.2,31.8,81.2,35,81.2z M84.4,45.4c-5-0.9-9.2-3-12.2-1.8c-4.4,1.8-9.4,5.1-11.4,9.1c-2.8,5.6,1.7,9.6,6.7,12.6
		c2.7,1.6,4.9,4.1,7.3,6.2c-3.7,0.3-7.4,0.6-11.2,0.8c-0.8,0-1.6-0.2-3.2-0.4c-0.2,2.7-0.8,7.1-0.4,7.2c5,1.2,10.5,3.3,15.2,2.1
		c3.7-0.9,8.4-5.6,9-9.2c0.6-3.5-2.9-8.3-5.7-11.5c-2.2-2.6-6.2-3.7-9.4-5.5c0.2-0.7,0.4-1.5,0.5-2.2c3.7,0,7.4,0,11.7,0
		C82.1,51.2,82.9,49.2,84.4,45.4z"/>
	<path class="st0" d="M35,81.2c-3.2,0-6,0-9.6,0c0-15.5,0-30.4,0.1-45.3c0-1.3,0.4-3.1,1.3-4c3.1-3.2,21.5-1.4,26.2,2.4
		c5.8,4.7,8.2,14.1,3,19.7c-4.6,4.9-11.7,7.5-17.6,11c-0.7-0.7-1.5-1.4-2.2-2.1C35.7,68.8,35.4,74.8,35,81.2z M36,55.4
		c4.4-1.9,8.5-2.8,11-5.2c1.4-1.3,1.5-6.6,0.2-7.8c-2.6-2.2-6.7-2.8-11.2-4.5C36,44.3,36,48.8,36,55.4z"/>
	<path class="st0" d="M84.4,45.4c-1.5,3.8-2.3,5.9-2.9,7.5c-4.3,0-8,0-11.7,0c-0.2,0.7-0.4,1.5-0.5,2.2c3.2,1.8,7.1,2.9,9.4,5.5
		c2.8,3.2,6.3,8,5.7,11.5c-0.6,3.6-5.3,8.2-9,9.2c-4.7,1.1-10.2-0.9-15.2-2.1c-0.4-0.1,0.2-4.5,0.4-7.2c1.6,0.2,2.4,0.4,3.2,0.4
		c3.7-0.2,7.4-0.5,11.2-0.8c-2.4-2.1-4.6-4.6-7.3-6.2c-5-3-9.5-7-6.7-12.6c2-4,7-7.3,11.4-9.1C75.2,42.4,79.4,44.5,84.4,45.4z"/>
	<path class="st1" d="M36,55.4c0-6.5,0-11,0-17.4c4.5,1.6,8.5,2.2,11.2,4.5c1.3,1.1,1.3,6.5-0.2,7.8C44.5,52.6,40.4,53.4,36,55.4z"
		/>
</g>
</svg>
