<?xml version="1.0" encoding="utf-8"?>
<!-- Generator: Adobe Illustrator 28.1.0, SVG Export Plug-In . SVG Version: 6.00 Build 0)  -->
<svg version="1.1" id="Layer_1" xmlns="http://www.w3.org/2000/svg" xmlns:xlink="http://www.w3.org/1999/xlink" x="0px" y="0px"
	 viewBox="0 0 105.1 109.9" style="enable-background:new 0 0 105.1 109.9;" xml:space="preserve">
<style type="text/css">
	.st0{fill:#FFFFFF;}
	.st1{fill:#794D9F;}
</style>
<g>
	<path class="st0" d="M0.1,54.2C0.1,54.2,0.1,54.2,0.1,54.2c0,12.1-0.2,24.2,0.1,36.3c0.3,11.6,7.3,18.9,18.9,19.1
		c22.1,0.4,44.3,0.4,66.4,0.1c12-0.2,19.4-8.3,19.5-20.6c0.1-23,0.1-46,0-69.1c-0.1-12.2-7.8-19.8-20-19.9C63.4,0,41.8,0,20.3,0.1
		C7.3,0.2,0.4,7.2,0.1,20.5C-0.1,31.7,0.1,43,0.1,54.2z"/>
	<path class="st1" d="M0.1,54.2c0-11.2-0.2-22.4,0-33.7C0.4,7.2,7.2,0.2,20.3,0.1C41.8,0,63.4,0,84.9,0.1c12.2,0.1,19.9,7.7,20,19.9
		c0.2,23,0.2,46,0,69.1c-0.1,12.3-7.4,20.4-19.5,20.6c-22.1,0.3-44.3,0.3-66.4-0.1c-11.6-0.2-18.6-7.5-18.9-19.1
		C-0.2,78.4,0.1,66.3,0.1,54.2C0.1,54.2,0.1,54.2,0.1,54.2z M80.5,82.2c0-18.5,0-36.3,0-54.4c-3.4,0-6.1,0-9.5,0
		c0,5.9,0,11.1,0,16.6c-3.2-0.5-5.8-1.2-8.4-1.3c-9.9-0.4-17.5,7.4-18.2,18.8c-0.8,12,5.8,21.5,15.7,21.7
		C66.8,83.8,73.5,82.7,80.5,82.2z M29.3,30.5c0,15.4,0.2,30.3-0.1,45.2c-0.2,8.2,3.6,8.5,9.9,6.4c0-17.3,0-34.2,0-51.6
		C35.9,30.5,33.1,30.5,29.3,30.5z"/>
	<path class="st0" d="M80.5,82.2c-7,0.5-13.7,1.6-20.3,1.4c-10-0.3-16.5-9.8-15.7-21.7c0.8-11.3,8.3-19.2,18.2-18.8
		c2.6,0.1,5.2,0.8,8.4,1.3c0-5.5,0-10.7,0-16.6c3.3,0,6.1,0,9.5,0C80.5,45.8,80.5,63.7,80.5,82.2z M72.9,60.9c-3.1-3-6-8.1-9.5-8.6
		c-7.3-1.1-9.1,5.4-9.2,11.2c-0.1,5.5,1.7,11.2,8.5,11.2C70.2,74.6,71.3,68.8,72.9,60.9z"/>
	<path class="st0" d="M29.3,30.5c3.8,0,6.6,0,9.8,0c0,17.4,0,34.3,0,51.6c-6.3,2.1-10.1,1.8-9.9-6.4C29.6,60.8,29.3,45.8,29.3,30.5z
		"/>
	<path class="st1" d="M72.9,60.9c-1.6,7.9-2.7,13.7-10.1,13.8c-6.9,0.1-8.7-5.6-8.5-11.2c0.1-5.8,1.9-12.3,9.2-11.2
		C66.9,52.8,69.8,57.9,72.9,60.9z"/>
</g>
</svg>
