<?xml version="1.0" encoding="utf-8"?>
<!-- Generator: Adobe Illustrator 28.1.0, SVG Export Plug-In . SVG Version: 6.00 Build 0)  -->
<svg version="1.1" id="Layer_1" xmlns="http://www.w3.org/2000/svg" xmlns:xlink="http://www.w3.org/1999/xlink" x="0px" y="0px"
	 viewBox="0 0 105.1 105.1" style="enable-background:new 0 0 105.1 105.1;" xml:space="preserve">
<style type="text/css">
	.st0{fill:#794D9F;}
	.st1{fill:#FFFFFF;}
</style>
<g>
	<path class="st0" d="M82.5,105.1H22.7C10.1,105.1,0,95,0,82.5V22.7C0,10.1,10.2,0,22.7,0h59.8c12.5,0,22.7,10.2,22.7,22.7v59.8
		C105.1,95,95,105.1,82.5,105.1z"/>
	<g>
		<path class="st1" d="M93.3,52.7c-1.9-5.4-5.2-9.8-9.7-13.2c-8.5-6.4-16.9-12.8-25.3-19.2c-0.4-0.3-1-0.5-1.1-1.1
			c-2.1-1.8-5.5,0-5.5,0c-3.1,2.5-3,3.9,0.2,6.4c3.1,2.5,6.2,5,9.6,7.8c-1.2,0.1-1.9,0.1-2.6,0.1c-10,0-19.9,0-29.9,0
			c-1.9,0-3.7,0.3-5.2,1.5c-1.4,1.1-2.2,2.4-1.7,4.2c0.5,1.9,1.9,2.5,3.6,2.5c5,0.1,10.1,0,15.2,0h1.6c0.2,0.9-0.6,1-1,1.3
			c-9.1,7-18.2,13.9-27.4,20.8c-1.8,1.4-3.3,2.9-4.2,5v2.6c2,3.6,5.6,4.4,9,1.8c4.8-3.7,9.4-7.6,14.2-11.3c0.7-0.5,1.2-1.4,2.1-1.4
			c1.7,13.7,9.4,21.9,22.5,25.2l3,0.8c3.1,0,6.2,0.3,9.3-0.3c7.4-1.4,13.7-4.6,18.6-10.5c2-2.4,3.3-5,4.5-7.9
			c0.1-0.4,0.2-0.7,0.3-1.1C97.6,58.6,93.3,52.7,93.3,52.7z M79.8,66.9c-7.1,9.5-22.5,9.6-29.7,0.1c-5.8-7.7-3.2-18.3,5.8-23
			c2.8-1.5,5.9-2.2,9-2.2c8.7,0,16,5.5,17.7,13.2C83.5,59.4,82.5,63.4,79.8,66.9z"/>
		<path class="st0" d="M64.9,41.8c8.7,0,16,5.5,17.7,13.2c0.9,4.4-0.1,8.4-2.7,11.9c-7.1,9.5-22.5,9.6-29.7,0.1
			c-5.8-7.7-3.2-18.3,5.8-23C58.6,42.6,61.7,41.8,64.9,41.8z M65.3,67.5c5.7,0.1,10.1-3.2,11.2-8.2c1.1-5.2-2.5-10.4-8.1-11.7
			c-6.2-1.5-12.6,1.8-14,7.2C52.5,61.6,57.6,67.4,65.3,67.5z"/>
		<path class="st1" d="M65.3,67.5c-7.8-0.1-12.8-5.9-11-12.7c1.5-5.4,7.8-8.6,14-7.2c5.6,1.3,9.2,6.5,8.1,11.7
			C75.4,64.3,71,67.6,65.3,67.5z"/>
	</g>
</g>
</svg>
