<?xml version="1.0" encoding="utf-8"?>
<!-- Generator: Adobe Illustrator 28.1.0, SVG Export Plug-In . SVG Version: 6.00 Build 0)  -->
<svg version="1.1" id="Layer_1" xmlns="http://www.w3.org/2000/svg" xmlns:xlink="http://www.w3.org/1999/xlink" x="0px" y="0px"
	 viewBox="0 0 105.1 105.1" style="enable-background:new 0 0 105.1 105.1;" xml:space="preserve">
<style type="text/css">
	.st0{fill:#794D9F;}
	.st1{fill:#FFFFFF;}
</style>
<g>
	<path class="st0" d="M82.5,105.1H22.7C10.1,105.1,0,95,0,82.5V22.7C0,10.1,10.2,0,22.7,0h59.8c12.5,0,22.7,10.2,22.7,22.7v59.8
		C105.1,95,95,105.1,82.5,105.1z"/>
	<g>
		<path class="st1" d="M21.3,33c-1.4,0.3-1,1.4-1,2.2c0,7.7,0,15.4,0,23.1c0,2.8,0,5.7,0,8.9c3.4-2,6.4-3.8,9.5-5.5
			c1.2-0.7,1.8-1.4,1.7-2.9c-0.1-3.4,0-6.8-0.1-10.3c0-1.8,0.4-2.1,2-1.2c3.9,2.3,7.8,4.5,11.7,6.8c1.1,0.6,1.5,1.4,1.5,2.6
			c-0.1,4.5,0,9,0,13.5c0,1.7-0.4,2.2-2,1.2c-3-1.8-6-3.5-9.1-5.3c-0.7-0.4-1.3-0.9-2.1-0.4c-3.4,2-6.8,4-10.3,6
			c0.3,0.2,0.5,0.4,0.7,0.5c9.2,5.4,18.4,10.7,27.6,16.1c1.2,0.7,1.9,0.2,2.7-0.3c8.7-5,17.3-10,26-15c0.5-0.3,1.3-0.4,1.5-1.3
			c-3.2-1.8-6.3-3.6-9.4-5.5c-1.2-0.7-2-0.6-3.2,0.1c-3,1.8-6,3.5-9,5.3c-1.3,0.8-1.7,0.6-1.7-1c0.1-4.6,0.1-9.2,0-13.8
			c0-1.3,0.5-2,1.5-2.6c3.9-2.2,7.8-4.5,11.7-6.8c1.6-1,1.8-0.3,1.7,1.2c0,3.5,0,7,0,10.5c0,0.9-0.1,1.7,0.9,2.2
			c3.5,1.8,6.7,4.2,10.3,5.8c0.6-0.2,0.5-0.6,0.4-1c0-10.6,0-21.2,0-31.7c0.5-1.4-0.7-1.5-1.5-2c-8.6-5-17.2-10-25.9-15
			c-0.6-0.3-1.1-0.9-2.1-0.7c0,3.6,0,7.2,0,10.9c0,1.3,0.4,2,1.5,2.6c3,1.6,5.9,3.4,8.9,5.1c1.3,0.8,1.9,1.3,0.1,2.3
			c-3.9,2.2-7.8,4.5-11.7,6.8c-0.9,0.5-1.7,0.8-2.8,0.2c-4-2.4-8-4.7-12.1-7c-1.7-0.9-1.1-1.5,0.2-2.2c3-1.7,6.1-3.5,9.1-5.2
			c0.6-0.3,1.3-0.6,1.4-1.4c0-4,0-8,0-12.4c-5.8,3.3-11.1,6.3-16.4,9.4C29.4,28.1,25.1,30.1,21.3,33z"/>
		<path class="st1" d="M84.4,67.2c-3.6-1.6-6.8-3.9-10.3-5.8c-1-0.5-0.9-1.3-0.9-2.2c0-3.5,0-7,0-10.5c0-1.4-0.1-2.1-1.7-1.2
			c-3.9,2.3-7.8,4.6-11.7,6.8c-1.1,0.6-1.5,1.3-1.5,2.6c0.1,4.6,0.1,9.2,0,13.8c0,1.6,0.4,1.7,1.7,1c3-1.8,6.1-3.5,9-5.3
			c1.1-0.7,2-0.8,3.2-0.1c3.1,1.9,6.3,3.7,9.4,5.5c-0.1,0.9-0.9,1-1.5,1.3c-8.7,5-17.3,10-26,15c-0.8,0.5-1.5,1-2.7,0.3
			C42.2,83.1,33,77.8,23.8,72.4c-0.2-0.1-0.3-0.3-0.7-0.5c3.5-2,6.9-4,10.3-6c0.9-0.5,1.5,0,2.1,0.4c3,1.8,6.1,3.5,9.1,5.3
			c1.6,1,2,0.5,2-1.2c0-4.5,0-9,0-13.5c0-1.2-0.3-2-1.5-2.6c-3.9-2.2-7.8-4.5-11.7-6.8c-1.5-0.9-2-0.6-2,1.2
			c0.1,3.4-0.1,6.8,0.1,10.3c0,1.5-0.5,2.2-1.7,2.9c-3.1,1.7-6.2,3.5-9.5,5.5c0-3.2,0-6,0-8.9c0-7.7,0-15.4,0-23.1
			c0-0.8-0.5-2,1-2.2c-0.1,0.9,0.6,1.2,1.2,1.5C32,40,41.6,45.4,51.1,51c1.1,0.6,1.8,0.5,2.7,0c3.4-2,6.8-4,10.3-6
			c6.2-3.6,12.3-7.2,18.5-10.7c0.7-0.4,1.5-1.4,2.2,0.1c0,10.6,0,21.2,0,31.7C84.6,66.5,84.5,66.8,84.4,67.2z"/>
		<path class="st1" d="M84.8,34.4c-0.6-1.6-1.5-0.5-2.2-0.1c-6.2,3.6-12.4,7.2-18.5,10.7c-3.4,2-6.9,4-10.3,6
			c-0.9,0.6-1.7,0.7-2.7,0C41.6,45.5,32,40,22.4,34.5c-0.6-0.3-1.3-0.6-1.2-1.5c3.8-2.8,8.1-4.9,12.1-7.3c5.3-3.1,10.6-6.1,16.4-9.4
			c0,4.4,0,8.4,0,12.4c0,0.9-0.8,1.1-1.4,1.4c-3,1.8-6,3.5-9.1,5.2c-1.2,0.7-1.8,1.2-0.2,2.2c4.1,2.3,8.1,4.6,12.1,7
			c1.1,0.6,1.8,0.4,2.8-0.2c3.9-2.3,7.8-4.6,11.7-6.8c1.8-1,1.2-1.5-0.1-2.3c-3-1.7-5.9-3.5-8.9-5.1c-1.1-0.6-1.5-1.3-1.5-2.6
			c0.1-3.6,0-7.3,0-10.9c1-0.2,1.5,0.4,2.1,0.7c8.6,5,17.2,10,25.9,15C84.1,32.9,85.2,33.1,84.8,34.4z"/>
		<path class="st1" d="M84.4,67.2c0.1-0.3,0.2-0.7,0.4-1C84.9,66.6,85.1,67,84.4,67.2z"/>
	</g>
</g>
</svg>
